name C:\Users\u0101727\Documents\MyRepositories\upper-imu-dc\Results\main_tracking\Case_44\FLX01_angularVelocities_bodyFrame.mot
datacolumns 4
datarows 82
range 0.51000000 1.32000000
endheader 
time	radius_imu_x	radius_imu_y	radius_imu_z	
          0.51000000	         -0.35747002	         -2.24344840	         -0.31167889	
          0.52000000	         -0.36126812	         -2.24183800	         -0.31909166	
          0.53000000	         -0.36577175	         -2.23962260	         -0.32684068	
          0.54000000	         -0.37109220	         -2.23719165	         -0.33487302	
          0.55000000	         -0.37742158	         -2.23454901	         -0.34322230	
          0.56000000	         -0.38490568	         -2.23172859	         -0.35194007	
          0.57000000	         -0.39367547	         -2.22881651	         -0.36108260	
          0.58000000	         -0.40383631	         -2.22592739	         -0.37070495	
          0.59000000	         -0.41547307	         -2.22321128	         -0.38085699	
          0.60000000	         -0.42865498	         -2.22089067	         -0.39157257	
          0.61000000	         -0.44342665	         -2.21917767	         -0.40287186	
          0.62000000	         -0.45981813	         -2.21825160	         -0.41477990	
          0.63000000	         -0.47783779	         -2.21825533	         -0.42730417	
          0.64000000	         -0.49747393	         -2.21926601	         -0.44043977	
          0.65000000	         -0.51870884	         -2.22130332	         -0.45417913	
          0.66000000	         -0.54151244	         -2.22434225	         -0.46849696	
          0.67000000	         -0.56583568	         -2.22832414	         -0.48334637	
          0.68000000	         -0.59160622	         -2.23314040	         -0.49866802	
          0.69000000	         -0.61873270	         -2.23861606	         -0.51440347	
          0.70000000	         -0.64711409	         -2.24453259	         -0.53049091	
          0.71000000	         -0.67663967	         -2.25064708	         -0.54685948	
          0.72000000	         -0.70718826	         -2.25671335	         -0.56342805	
          0.73000000	         -0.73863180	         -2.26249372	         -0.58010436	
          0.74000000	         -0.77083691	         -2.26775258	         -0.59680077	
          0.75000000	         -0.80366711	         -2.27225906	         -0.61344352	
          0.76000000	         -0.83698619	         -2.27582273	         -0.62996277	
          0.77000000	         -0.87065981	         -2.27831983	         -0.64628656	
          0.78000000	         -0.90455870	         -2.27969966	         -0.66234308	
          0.79000000	         -0.93856291	         -2.27996890	         -0.67807033	
          0.80000000	         -0.97256598	         -2.27918100	         -0.69342473	
          0.81000000	         -1.00647967	         -2.27743085	         -0.70837728	
          0.82000000	         -1.04023224	         -2.27485052	         -0.72290743	
          0.83000000	         -1.07376572	         -2.27160440	         -0.73699860	
          0.84000000	         -1.10702822	         -2.26786831	         -0.75063695	
          0.85000000	         -1.13996633	         -2.26380553	         -0.76381756	
          0.86000000	         -1.17252396	         -2.25955766	         -0.77654134	
          0.87000000	         -1.20464034	         -2.25524119	         -0.78880427	
          0.88000000	         -1.23625180	         -2.25093869	         -0.80059760	
          0.89000000	         -1.26729463	         -2.24668388	         -0.81191452	
          0.90000000	         -1.29771102	         -2.24245222	         -0.82275528	
          0.91000000	         -1.32745545	         -2.23815763	         -0.83312792	
          0.92000000	         -1.35649987	         -2.23364956	         -0.84304891	
          0.93000000	         -1.38483885	         -2.22870793	         -0.85254605	
          0.94000000	         -1.41249420	         -2.22303758	         -0.86166240	
          0.95000000	         -1.43951594	         -2.21626494	         -0.87045865	
          0.96000000	         -1.46597540	         -2.20793973	         -0.87901246	
          0.97000000	         -1.49194947	         -2.19754371	         -0.88741504	
          0.98000000	         -1.51749861	         -2.18450800	         -0.89576583	
          0.99000000	         -1.54264383	         -2.16823979	         -0.90416608	
          1.00000000	         -1.56734881	         -2.14815660	         -0.91271241	
          1.01000000	         -1.59151353	         -2.12372359	         -0.92149141	
          1.02000000	         -1.61498187	         -2.09448726	         -0.93057627	
          1.03000000	         -1.63755942	         -2.06009954	         -0.94002512	
          1.04000000	         -1.65903403	         -2.02033042	         -0.94988033	
          1.05000000	         -1.67919296	         -1.97507133	         -0.96016815	
          1.06000000	         -1.69783468	         -1.92433258	         -0.97089789	
          1.07000000	         -1.71477542	         -1.86823675	         -0.98206054	
          1.08000000	         -1.72985147	         -1.80700768	         -0.99362713	
          1.09000000	         -1.74291872	         -1.74095515	         -1.00554731	
          1.10000000	         -1.75385175	         -1.67045679	         -1.01774888	
          1.11000000	         -1.76254419	         -1.59593983	         -1.03013845	
          1.12000000	         -1.76891137	         -1.51786472	         -1.04260331	
          1.13000000	         -1.77289440	         -1.43671180	         -1.05501406	
          1.14000000	         -1.77446408	         -1.35297117	         -1.06722753	
          1.15000000	         -1.77362297	         -1.26713482	         -1.07908929	
          1.16000000	         -1.77040443	         -1.17969071	         -1.09043606	
          1.17000000	         -1.76486806	         -1.09111805	         -1.10109799	
          1.18000000	         -1.75709260	         -1.00188220	         -1.11090113	
          1.19000000	         -1.74716764	         -0.91242948	         -1.11966975	
          1.20000000	         -1.73518571	         -0.82318319	         -1.12722882	
          1.21000000	         -1.72123626	         -0.73453951	         -1.13340645	
          1.22000000	         -1.70540225	         -0.64686472	         -1.13803588	
          1.23000000	         -1.68776042	         -0.56049478	         -1.14095697	
          1.24000000	         -1.66838456	         -0.47573534	         -1.14201775	
          1.25000000	         -1.64734943	         -0.39286498	         -1.14107678	
          1.26000000	         -1.62473435	         -0.31214117	         -1.13800626	
          1.27000000	         -1.60062668	         -0.23380358	         -1.13269388	
          1.28000000	         -1.57512461	         -0.15807637	         -1.12504130	
          1.29000000	         -1.54833984	         -0.08516666	         -1.11496002	
          1.30000000	         -1.52039738	         -0.01526117	         -1.10236930	
          1.31000000	         -1.49143150	          0.05147236	         -1.08719883	
          1.32000000	         -1.46158380	          0.11488662	         -1.06939465	
